<?xml version="1.0" encoding="iso-8859-1"?>
<!-- Uploaded to: SVG Repo, www.svgrepo.com, Generator: SVG Repo Mixer Tools -->
<svg fill="#000000" height="800px" width="800px" version="1.1" id="Layer_1" xmlns="http://www.w3.org/2000/svg" xmlns:xlink="http://www.w3.org/1999/xlink" 
	 viewBox="0 0 512 512" xml:space="preserve">
<g>
	<g>
		<path d="M469.333,410.368V256V101.623C493.508,97.545,512,76.518,512,51.2C512,22.963,489.037,0,460.8,0
			c-28.237,0-51.2,22.963-51.2,51.2c0,25.318,18.492,46.345,42.667,50.423v145.843H332.8V101.623
			c24.175-4.079,42.667-25.105,42.667-50.423c0-28.237-22.963-51.2-51.2-51.2c-28.237,0-51.2,22.963-51.2,51.2
			c0,25.318,18.492,46.345,42.667,50.423v145.843H196.267l0.009-145.843c24.175-4.079,42.658-25.105,42.658-50.423
			c0-28.237-22.963-51.2-51.2-51.2s-51.2,22.963-51.2,51.2c0,25.318,18.492,46.353,42.675,50.432L179.2,247.467H59.725
			l0.009-145.843C83.908,97.545,102.4,76.518,102.4,51.2C102.4,22.963,79.437,0,51.2,0C22.963,0,0,22.963,0,51.2
			c0,25.318,18.492,46.345,42.667,50.423L42.658,256c0,4.71,3.823,8.533,8.533,8.533H179.2v145.835
			c-24.175,4.079-42.667,25.105-42.667,50.432c0,28.228,22.963,51.2,51.2,51.2s51.2-22.972,51.2-51.2
			c0-25.327-18.492-46.353-42.667-50.432V264.533h119.467v145.835c-24.175,4.079-42.667,25.105-42.667,50.432
			c0,28.228,22.963,51.2,51.2,51.2c28.237,0,51.2-22.972,51.2-51.2c0-25.327-18.492-46.353-42.667-50.432V264.533h119.467v145.835
			c-24.175,4.079-42.667,25.105-42.667,50.432c0,28.228,22.963,51.2,51.2,51.2c28.237,0,51.2-22.972,51.2-51.2
			C512,435.473,493.508,414.447,469.333,410.368z"/>
	</g>
</g>
</svg>